<svg id="svg" version="1.1" xmlns="http://www.w3.org/2000/svg" xmlns:xlink="http://www.w3.org/1999/xlink" width="400" height="370.1333333333333" viewBox="0, 0, 400,370.1333333333333"><g id="svgg"><path id="path0" d="M221.481 61.149 C 220.920 61.265,217.103 63.101,216.630 63.483 C 216.513 63.578,216.134 63.892,215.789 64.180 C 215.185 64.686,215.135 64.698,214.456 64.505 C 213.188 64.145,212.918 64.136,211.837 64.416 C 210.927 64.651,208.961 65.459,207.960 66.008 C 207.800 66.096,207.198 66.418,206.622 66.723 C 205.516 67.310,203.455 68.758,203.361 69.015 C 203.331 69.098,203.224 69.167,203.124 69.167 C 203.025 69.167,202.804 69.292,202.634 69.446 C 202.407 69.652,201.987 69.731,201.038 69.746 C 199.597 69.770,197.384 70.678,195.775 71.906 C 195.347 72.233,194.956 72.500,194.906 72.500 C 194.399 72.500,189.336 76.921,188.418 78.165 L 188.039 78.678 187.561 78.287 C 185.752 76.805,184.217 77.037,180.250 79.391 C 175.342 82.304,172.667 85.016,172.667 87.078 L 172.667 87.833 171.292 87.829 L 169.917 87.824 169.083 87.076 C 167.464 85.624,166.076 84.501,165.894 84.496 C 165.815 84.494,165.636 84.260,165.496 83.977 C 164.606 82.168,160.791 81.746,149.750 82.237 C 146.071 82.400,143.214 82.983,140.750 84.075 C 139.084 84.813,136.595 85.986,136.000 86.314 C 135.357 86.669,132.890 87.833,132.782 87.833 C 132.715 87.833,132.005 88.144,131.205 88.524 C 130.405 88.903,129.112 89.507,128.333 89.865 C 127.554 90.223,126.617 90.655,126.250 90.825 C 125.883 90.995,124.196 91.809,122.500 92.636 C 117.883 94.886,117.207 95.167,116.402 95.167 C 115.766 95.167,114.353 95.584,112.250 96.393 C 108.238 97.935,104.672 100.940,103.914 103.417 C 103.260 105.557,103.544 109.235,104.587 112.109 C 105.018 113.299,104.945 113.800,104.260 114.366 C 103.214 115.229,104.070 121.779,105.813 126.260 C 106.141 127.102,106.141 127.105,105.804 127.844 C 105.109 129.367,106.106 134.811,107.739 138.417 C 108.413 139.903,109.798 142.639,110.120 143.117 C 110.323 143.419,110.429 143.667,110.355 143.667 C 109.943 143.667,108.759 145.201,108.473 146.105 C 107.684 148.602,110.421 158.008,112.500 159.943 C 113.320 160.706,113.721 161.000,113.942 161.000 C 114.565 161.000,113.729 161.920,112.750 162.311 C 112.658 162.348,111.866 162.856,110.989 163.439 C 110.113 164.023,109.311 164.500,109.207 164.500 C 108.000 164.500,104.667 169.578,104.667 171.417 C 104.667 171.505,104.521 171.953,104.343 172.413 C 104.166 172.874,103.856 173.813,103.655 174.500 C 103.453 175.188,103.155 176.200,102.992 176.750 C 102.828 177.300,102.644 178.050,102.583 178.417 C 102.522 178.783,102.372 179.308,102.249 179.583 C 100.924 182.552,100.728 188.533,101.738 195.124 C 101.882 196.063,102.001 197.188,102.002 197.624 C 102.003 198.060,102.153 199.612,102.335 201.073 C 102.518 202.534,102.667 204.306,102.667 205.011 C 102.667 205.715,102.811 207.182,102.987 208.271 C 103.474 211.283,103.739 214.719,103.517 215.135 C 103.137 215.844,103.286 221.528,103.741 223.724 C 104.243 226.144,105.666 229.250,106.550 229.854 C 106.843 230.054,107.158 230.303,107.250 230.407 C 108.276 231.565,111.666 232.412,115.292 232.415 C 116.211 232.416,116.667 232.480,116.667 232.607 C 116.667 232.712,116.773 232.838,116.902 232.888 C 117.032 232.938,117.238 233.186,117.361 233.439 C 118.021 234.805,123.859 236.156,128.024 235.906 L 129.798 235.799 130.290 236.314 C 132.014 238.118,139.414 238.612,145.333 237.318 C 146.514 237.060,146.567 237.064,146.630 237.417 C 146.732 237.989,147.515 239.500,147.710 239.500 C 147.812 239.500,148.050 239.639,148.239 239.808 C 149.059 240.541,150.721 240.842,155.463 241.116 C 157.359 241.226,160.867 240.927,161.917 240.567 C 162.997 240.196,164.818 240.460,165.434 241.077 C 165.586 241.229,165.986 241.464,166.322 241.598 C 166.891 241.826,166.948 241.914,167.146 242.880 C 167.262 243.450,167.496 244.329,167.664 244.833 C 167.833 245.338,168.021 245.993,168.082 246.290 C 168.142 246.587,168.262 246.872,168.346 246.925 C 168.431 246.977,168.500 247.296,168.501 247.635 C 168.504 249.537,170.954 252.231,174.972 254.750 C 175.119 254.842,175.631 255.198,176.112 255.542 C 176.593 255.885,177.028 256.167,177.080 256.167 C 177.196 256.167,178.552 257.039,178.667 257.188 C 178.713 257.247,179.012 257.415,179.333 257.561 C 180.060 257.892,180.492 258.171,180.825 258.524 C 181.093 258.807,182.349 259.516,184.250 260.454 C 185.359 261.001,189.014 262.170,189.595 262.163 C 189.877 262.159,190.795 262.315,194.667 263.022 C 195.171 263.114,196.071 263.265,196.667 263.357 C 197.262 263.450,198.500 263.666,199.417 263.839 C 206.041 265.085,207.784 265.395,211.151 265.925 C 213.251 266.255,214.106 266.466,214.836 266.835 C 218.300 268.584,224.163 269.367,227.293 268.500 C 227.954 268.317,228.654 268.167,228.847 268.167 C 229.058 268.167,229.233 268.034,229.285 267.833 C 229.333 267.650,229.475 267.500,229.601 267.500 C 230.409 267.500,232.625 264.478,233.434 262.274 C 233.916 260.961,234.500 259.120,234.500 258.913 C 234.500 258.658,235.221 258.167,235.593 258.167 C 236.019 258.167,236.773 257.554,237.188 256.872 C 237.396 256.530,237.616 256.212,237.677 256.167 C 237.795 256.079,239.125 253.491,239.562 252.500 C 239.995 251.516,240.357 250.463,240.621 249.417 C 241.314 246.669,241.404 246.452,241.984 246.129 C 242.289 245.958,242.630 245.727,242.743 245.614 C 243.046 245.311,244.667 242.257,244.667 241.988 C 244.667 241.861,244.810 241.380,244.985 240.920 C 246.020 238.195,247.191 232.017,246.890 230.866 C 246.822 230.606,246.973 230.538,247.949 230.386 C 249.513 230.144,251.333 228.745,251.333 227.785 C 251.333 227.665,251.396 227.495,251.473 227.408 C 251.550 227.321,251.845 226.650,252.128 225.917 C 254.055 220.930,254.854 216.996,254.280 215.333 C 254.081 214.757,254.088 214.741,254.894 213.995 L 255.711 213.239 258.509 213.284 C 260.237 213.311,261.475 213.405,261.746 213.528 C 262.334 213.797,264.705 213.232,265.385 212.662 C 265.686 212.409,266.837 211.667,266.928 211.667 C 266.971 211.667,267.512 211.274,268.129 210.794 C 269.238 209.930,269.391 209.807,269.932 209.349 C 270.085 209.219,270.856 208.589,271.646 207.949 C 272.437 207.308,273.476 206.387,273.956 205.901 C 274.436 205.416,275.148 204.799,275.539 204.529 C 276.668 203.750,279.119 201.006,280.254 199.250 C 280.823 198.371,281.007 198.020,284.005 192.083 C 286.471 187.201,288.157 183.904,289.715 180.917 C 289.858 180.642,290.215 179.892,290.508 179.250 C 290.801 178.608,291.307 177.558,291.632 176.917 C 291.957 176.275,292.355 175.487,292.517 175.167 C 292.679 174.846,293.215 174.153,293.708 173.627 C 296.109 171.070,298.353 166.147,298.700 162.675 L 298.893 160.746 298.369 159.373 C 297.639 157.463,294.427 153.667,293.540 153.667 C 293.446 153.667,293.332 153.571,293.287 153.454 C 293.243 153.337,292.825 153.056,292.359 152.829 C 291.689 152.502,291.510 152.330,291.499 152.000 C 291.441 150.257,291.372 150.025,290.623 149.054 C 289.799 147.986,287.132 145.357,286.083 144.580 C 285.717 144.308,285.379 144.041,285.333 143.987 C 285.287 143.932,284.875 143.673,284.417 143.411 C 282.594 142.370,282.241 142.031,282.081 141.177 C 281.884 140.123,278.334 136.500,277.499 136.500 C 277.408 136.500,277.333 136.430,277.333 136.344 C 277.333 136.258,277.033 136.019,276.667 135.813 C 276.300 135.607,276.000 135.386,276.000 135.322 C 276.000 135.258,275.869 135.162,275.708 135.110 C 275.548 135.057,275.117 134.828,274.750 134.600 C 273.397 133.760,269.659 132.000,269.227 132.000 C 269.041 132.000,269.000 131.915,269.089 131.708 C 269.890 129.829,269.008 127.686,266.667 125.823 C 266.071 125.349,265.462 124.838,265.314 124.689 C 265.166 124.539,264.874 124.304,264.666 124.167 C 264.457 124.029,264.091 123.767,263.852 123.583 C 263.045 122.966,262.348 122.500,262.228 122.500 C 262.163 122.500,261.991 122.396,261.846 122.268 C 261.399 121.875,258.670 120.500,258.336 120.500 C 257.712 120.500,257.735 120.330,258.664 118.000 C 258.865 117.496,259.114 116.821,259.217 116.500 C 259.321 116.179,259.526 115.828,259.673 115.720 C 260.568 115.061,260.527 110.955,259.599 108.250 C 259.473 107.883,259.200 106.983,258.993 106.250 C 258.365 104.032,257.304 100.902,256.964 100.267 C 256.862 100.076,256.750 99.659,256.715 99.340 C 256.639 98.657,255.374 95.687,254.673 94.547 C 254.403 94.109,254.065 93.521,253.921 93.241 C 253.504 92.429,249.941 88.131,248.409 86.592 C 248.222 86.404,247.588 85.650,247.001 84.917 C 246.415 84.183,245.694 83.321,245.401 83.000 C 244.906 82.460,244.471 81.943,242.031 79.000 C 241.537 78.404,240.893 77.654,240.599 77.333 C 240.306 77.012,239.405 76.000,238.597 75.083 C 237.788 74.167,236.873 73.136,236.563 72.794 C 236.254 72.451,236.000 72.095,236.000 72.002 C 236.000 71.909,235.937 71.833,235.860 71.833 C 235.783 71.833,235.615 71.515,235.487 71.125 C 234.736 68.844,230.297 63.564,228.182 62.434 C 225.606 61.058,225.692 61.085,223.836 61.054 C 222.872 61.038,221.812 61.081,221.481 61.149 M226.776 63.231 C 229.666 65.387,231.620 67.776,234.493 72.667 C 235.435 74.271,236.704 76.235,237.312 77.032 C 241.986 83.157,244.390 86.216,245.997 88.083 C 249.602 92.273,250.284 93.094,251.119 94.250 C 251.901 95.332,254.020 98.744,254.566 99.800 C 254.925 100.493,257.278 109.889,257.652 112.119 L 257.979 114.072 256.852 116.161 C 254.917 119.746,254.549 120.554,254.431 121.478 C 254.315 122.389,254.116 122.733,251.923 125.833 C 251.501 126.429,250.715 127.554,250.176 128.333 C 249.636 129.112,248.735 130.313,248.172 131.000 C 244.392 135.620,242.454 138.428,239.088 144.167 C 237.824 146.321,235.840 149.508,234.678 151.250 C 233.517 152.992,232.395 154.723,232.184 155.098 C 231.865 155.667,231.560 155.899,230.350 156.492 L 228.898 157.204 227.935 157.004 C 225.504 156.499,223.238 155.480,221.826 154.255 C 218.350 151.239,215.312 149.337,213.962 149.331 C 213.662 149.330,213.086 149.213,212.681 149.072 C 211.116 148.527,207.689 149.295,202.417 151.371 C 197.196 153.426,194.391 153.577,193.508 151.850 C 193.340 151.520,192.549 150.202,191.751 148.922 C 188.234 143.279,186.335 139.415,186.205 137.641 L 186.124 136.531 186.854 136.074 C 187.255 135.822,187.996 135.302,188.500 134.917 C 189.004 134.533,189.775 134.088,190.212 133.927 C 194.003 132.540,197.610 127.905,197.192 124.958 C 197.021 123.754,196.956 123.734,198.676 125.417 C 200.927 127.620,200.913 127.830,198.893 122.207 C 197.810 119.192,195.189 115.237,188.817 107.000 C 187.576 105.396,184.980 101.908,183.048 99.250 C 181.116 96.592,178.969 93.712,178.276 92.851 C 177.583 91.990,176.756 90.790,176.437 90.183 C 176.118 89.577,175.665 88.900,175.429 88.678 C 175.069 88.340,175.000 88.128,175.000 87.360 L 175.000 86.445 176.304 85.175 C 177.876 83.645,180.399 81.899,183.188 80.410 C 184.322 79.805,185.429 79.111,185.648 78.868 L 186.047 78.427 186.629 79.088 C 186.949 79.452,187.552 80.275,187.969 80.917 C 189.284 82.941,193.809 88.725,196.583 91.928 C 197.225 92.668,198.222 93.854,198.800 94.561 C 200.519 96.668,201.700 97.112,201.802 95.690 C 201.878 94.633,201.293 93.575,199.382 91.312 C 198.484 90.249,196.741 88.188,195.508 86.732 C 194.275 85.275,192.306 83.102,191.131 81.902 L 188.996 79.721 190.706 78.123 C 193.729 75.299,196.631 73.223,200.641 71.017 C 201.843 70.356,205.184 73.611,208.602 78.777 C 210.723 81.981,212.064 83.375,212.953 83.302 C 213.944 83.220,213.949 82.259,212.967 80.856 C 212.573 80.293,211.500 78.764,210.584 77.458 C 208.583 74.606,205.982 71.908,204.302 70.942 L 203.186 70.301 204.945 69.382 C 207.012 68.303,210.920 66.628,212.289 66.235 C 212.817 66.083,213.448 65.857,213.690 65.734 C 214.593 65.275,218.707 69.356,222.079 74.054 C 223.544 76.096,224.030 76.455,224.516 75.855 C 225.307 74.878,220.352 68.512,216.769 65.904 L 216.294 65.559 217.244 64.928 C 219.124 63.680,221.760 62.525,223.513 62.181 C 224.931 61.903,225.043 61.939,226.776 63.231 M156.583 84.666 C 158.692 84.755,161.092 84.916,161.917 85.024 L 163.417 85.221 166.202 87.968 L 168.988 90.716 170.130 90.610 C 170.757 90.551,171.709 90.353,172.245 90.168 C 173.783 89.639,173.935 89.771,176.846 94.167 C 177.484 95.129,178.334 96.329,178.736 96.833 C 179.138 97.337,180.009 98.763,180.673 100.000 C 182.620 103.636,184.548 106.586,187.892 111.053 C 189.620 113.362,191.934 116.600,193.034 118.250 C 194.134 119.900,195.296 121.608,195.618 122.046 C 196.190 122.827,196.203 122.878,196.226 124.548 L 196.250 126.252 195.464 127.357 C 194.014 129.394,191.297 132.000,190.624 132.000 C 190.489 132.000,190.088 132.233,189.731 132.518 C 188.575 133.443,186.093 135.121,185.707 135.241 C 185.185 135.402,184.889 136.056,184.750 137.360 C 184.658 138.216,184.564 138.488,184.338 138.547 C 182.979 138.902,182.391 143.727,182.916 150.230 C 183.436 156.678,182.837 158.443,179.865 159.219 C 178.977 159.451,177.345 159.901,176.238 160.220 C 171.956 161.453,166.717 162.461,165.721 162.243 C 164.493 161.974,164.433 161.907,163.854 160.203 C 163.552 159.312,163.230 158.021,163.140 157.333 C 162.519 152.595,159.653 148.319,156.741 147.787 L 155.583 147.576 157.458 146.444 C 159.690 145.097,159.778 144.914,158.125 145.062 C 157.460 145.122,156.017 145.240,154.917 145.325 C 150.768 145.644,146.968 146.832,137.833 150.664 C 135.987 151.439,129.051 154.103,126.750 154.921 C 124.026 155.890,120.128 157.458,117.931 158.470 L 116.113 159.307 115.265 158.974 C 113.454 158.262,111.920 154.818,110.746 148.833 C 110.504 147.596,110.164 146.340,109.992 146.042 L 109.678 145.501 110.298 145.186 C 110.638 145.013,111.946 144.525,113.205 144.100 C 115.579 143.301,121.291 140.923,124.333 139.469 C 125.296 139.008,126.649 138.387,127.339 138.088 C 130.055 136.911,131.000 136.264,131.000 135.585 C 131.000 134.180,128.814 134.546,124.205 136.722 C 122.763 137.403,121.021 138.204,120.333 138.502 C 118.612 139.248,115.236 140.950,113.332 142.030 L 111.748 142.930 111.446 142.340 C 109.205 137.963,107.210 132.194,106.886 129.150 C 106.720 127.586,110.336 125.446,116.500 123.461 C 119.507 122.493,121.031 121.793,121.596 121.121 C 122.640 119.880,121.499 119.129,119.621 119.821 C 119.142 119.998,117.662 120.529,116.333 121.003 C 112.082 122.517,109.430 123.951,107.720 125.661 L 106.889 126.492 106.673 125.371 C 106.554 124.754,106.391 123.875,106.310 123.417 C 106.041 121.887,105.691 118.105,105.639 116.183 L 105.588 114.283 106.169 113.822 C 106.957 113.197,110.829 111.011,112.167 110.436 C 112.763 110.180,113.475 109.872,113.750 109.751 C 114.025 109.631,114.905 109.302,115.706 109.021 C 117.502 108.392,118.096 108.091,118.230 107.743 C 118.398 107.306,118.355 107.189,117.928 106.909 C 116.942 106.263,109.032 109.771,106.706 111.886 C 106.158 112.385,106.018 112.147,105.477 109.799 C 105.074 108.053,105.004 107.390,105.002 105.315 L 105.000 102.881 106.208 101.892 C 109.497 99.199,112.409 97.870,118.333 96.357 C 121.090 95.653,122.030 95.317,127.250 93.174 C 129.083 92.421,130.958 91.671,131.417 91.507 C 132.498 91.120,134.915 90.027,138.410 88.346 C 141.449 86.885,143.863 85.942,146.314 85.260 C 147.175 85.021,148.000 84.754,148.148 84.667 C 148.495 84.464,151.755 84.464,156.583 84.666 M258.420 122.975 C 260.628 124.019,263.442 125.991,266.167 128.401 C 266.854 129.010,267.655 129.594,267.946 129.699 L 268.475 129.891 267.980 130.872 C 267.708 131.412,267.234 132.205,266.927 132.635 C 264.652 135.825,257.721 148.909,257.552 150.334 C 257.345 152.084,258.904 151.660,260.338 149.576 C 261.080 148.499,266.148 138.400,267.334 135.639 C 268.210 133.597,268.427 133.219,268.650 133.342 C 268.797 133.422,269.277 133.645,269.717 133.836 C 272.176 134.902,277.019 137.954,278.937 139.644 C 279.316 139.977,279.941 140.504,280.328 140.814 C 281.017 141.367,281.029 141.393,280.917 142.147 C 280.617 144.164,278.917 147.736,276.641 151.134 C 274.645 154.116,273.833 155.698,273.833 156.608 C 273.833 158.531,275.145 158.050,276.629 155.583 C 277.125 154.758,277.983 153.382,278.536 152.524 C 280.355 149.700,281.461 147.154,281.977 144.608 L 282.273 143.144 285.035 145.821 C 287.960 148.656,290.500 151.606,290.500 152.168 C 290.500 153.416,287.751 159.250,285.394 163.007 C 284.266 164.805,284.254 165.631,285.359 165.471 C 286.307 165.334,289.957 158.645,290.867 155.376 C 291.078 154.621,291.339 154.002,291.447 154.001 C 292.165 153.997,295.781 157.477,297.021 159.365 L 297.865 160.651 297.424 162.534 C 296.524 166.371,295.089 169.068,291.226 174.181 C 290.228 175.502,288.819 177.633,288.097 178.917 C 287.374 180.200,286.526 181.681,286.213 182.208 L 285.643 183.167 249.928 183.167 L 214.213 183.167 214.099 182.056 C 213.853 179.658,211.992 176.705,207.917 172.250 C 204.692 168.723,204.189 167.874,203.911 165.489 C 203.814 164.662,203.847 164.509,204.212 164.073 C 204.437 163.804,205.405 162.491,206.363 161.157 C 210.110 155.936,213.456 152.114,214.644 151.700 C 215.190 151.509,215.970 151.961,217.917 153.596 C 222.563 157.498,227.388 159.083,230.092 157.597 L 231.169 157.005 230.906 157.627 C 229.155 161.777,229.230 161.884,232.047 159.269 C 235.777 155.805,238.131 152.518,242.500 144.667 C 244.313 141.409,247.242 136.472,249.423 133.000 C 250.142 131.854,251.237 130.017,251.855 128.917 C 255.587 122.275,256.051 121.854,258.420 122.975 M185.415 141.161 C 186.157 143.391,188.549 147.837,190.932 151.418 C 193.588 155.409,196.151 155.937,202.104 153.720 C 205.964 152.282,207.262 151.859,209.429 151.331 C 210.535 151.062,211.698 150.733,212.013 150.602 C 213.054 150.167,213.410 150.677,212.474 151.261 C 208.945 153.461,201.741 163.563,202.051 165.875 L 202.136 166.507 187.610 166.462 L 173.083 166.417 170.583 165.389 C 169.208 164.823,167.876 164.309,167.623 164.245 C 166.736 164.023,167.024 163.881,168.587 163.771 C 172.374 163.505,179.479 161.661,181.971 160.298 C 183.353 159.541,183.889 158.912,184.603 157.207 C 185.132 155.944,185.095 157.146,184.969 145.042 C 184.940 142.177,184.928 139.833,184.944 139.833 C 184.960 139.833,185.172 140.431,185.415 141.161 M155.322 148.407 C 155.833 148.540,156.444 148.688,156.681 148.737 C 158.101 149.030,160.834 153.388,161.340 156.167 C 161.415 156.579,161.819 157.923,162.238 159.153 C 162.657 160.383,163.000 161.583,163.000 161.818 C 163.000 162.279,165.710 165.055,167.080 165.998 C 168.385 166.895,172.547 168.380,176.630 169.405 C 180.506 170.377,181.280 170.753,182.742 172.369 C 183.412 173.109,183.661 173.506,183.604 173.746 C 183.560 173.932,183.476 175.021,183.417 176.167 C 182.994 184.356,182.258 189.302,181.310 190.320 C 180.953 190.704,177.463 190.810,174.917 190.514 C 170.605 190.013,166.564 191.441,165.285 193.917 L 164.769 194.917 164.414 193.083 C 163.777 189.796,163.780 189.796,162.859 193.333 C 161.346 199.147,161.201 202.789,161.998 214.917 C 162.082 216.200,162.198 219.894,162.255 223.125 L 162.359 229.000 155.037 229.000 L 147.716 229.000 147.610 227.542 C 146.820 216.662,146.475 214.500,145.528 214.500 C 144.520 214.500,144.022 216.582,144.331 219.502 C 144.658 222.587,145.164 228.069,145.165 228.542 L 145.167 229.000 137.500 229.000 L 129.833 229.000 129.833 225.023 C 129.833 222.835,129.759 220.654,129.668 220.176 C 129.326 218.369,128.250 217.750,127.626 219.000 C 127.350 219.552,127.317 226.316,127.580 228.461 L 127.646 229.005 122.282 228.961 L 116.917 228.917 116.628 227.250 C 116.462 226.289,116.297 224.171,116.239 222.250 C 116.107 217.946,115.806 217.043,114.801 217.943 C 114.235 218.450,114.550 225.880,115.250 228.545 L 115.371 229.006 111.147 228.961 L 106.923 228.917 106.382 227.417 C 105.067 223.770,104.736 219.916,105.243 214.142 C 105.484 211.387,105.502 210.382,105.354 207.809 C 105.257 206.126,105.133 203.550,105.078 202.083 C 105.024 200.617,104.796 197.617,104.572 195.417 C 103.851 188.331,103.815 187.736,103.900 184.300 C 103.994 180.476,103.971 180.564,106.584 173.833 C 106.709 173.512,107.047 172.612,107.336 171.833 C 107.624 171.054,108.232 169.629,108.687 168.667 L 109.513 166.917 112.524 165.418 C 115.821 163.776,116.567 163.182,116.751 162.052 C 116.902 161.127,117.124 160.667,117.420 160.667 C 117.563 160.667,118.146 160.450,118.715 160.185 C 121.103 159.075,125.789 157.471,128.269 156.915 C 132.957 155.865,135.886 154.935,141.167 152.821 C 142.587 152.252,146.019 151.022,148.792 150.087 C 151.565 149.153,153.884 148.338,153.945 148.277 C 154.102 148.120,154.278 148.136,155.322 148.407 M207.024 174.388 C 208.365 175.884,208.923 176.589,210.993 179.410 C 212.711 181.752,212.680 181.878,210.708 180.557 C 207.217 178.217,200.220 175.516,196.917 175.233 C 194.849 175.056,191.993 176.923,190.738 179.271 C 189.598 181.405,187.688 184.726,187.109 185.583 C 185.568 187.864,183.670 190.278,183.279 190.456 L 182.860 190.647 183.246 189.775 C 184.646 186.610,186.010 175.560,185.271 173.375 L 185.144 173.000 195.462 173.000 L 205.779 173.000 207.024 174.388 M200.600 178.252 C 209.419 181.333,212.619 183.053,212.394 184.592 C 212.174 186.090,211.616 187.984,211.093 189.000 C 209.113 192.848,209.126 198.100,211.121 200.191 C 212.188 201.310,212.268 201.267,209.657 200.983 C 207.733 200.774,207.219 200.934,208.157 201.451 C 208.455 201.615,209.461 202.231,210.391 202.818 C 214.111 205.167,217.671 206.390,226.917 208.497 C 231.075 209.444,237.801 211.129,240.250 211.836 C 241.921 212.319,248.204 213.772,249.588 213.995 C 252.963 214.540,252.978 217.702,249.645 226.026 C 249.107 227.370,248.667 228.673,248.667 228.923 C 248.667 229.512,247.758 229.422,245.167 228.578 C 242.806 227.809,237.144 226.554,231.667 225.586 C 230.338 225.351,228.950 225.087,228.583 225.000 C 225.755 224.327,224.298 225.517,226.425 226.763 C 227.441 227.359,228.390 227.607,232.162 228.261 C 234.039 228.586,235.608 228.886,235.648 228.926 C 235.689 228.967,219.616 229.000,199.930 229.000 L 164.138 229.000 164.249 227.708 C 164.310 226.998,164.465 225.528,164.594 224.442 C 165.087 220.284,165.195 216.667,164.997 210.893 C 164.892 207.847,164.848 203.276,164.898 200.737 L 164.990 196.120 165.669 194.996 C 166.558 193.524,166.707 193.405,168.354 192.846 C 171.047 191.932,172.411 191.818,177.750 192.060 C 184.838 192.382,186.303 191.409,190.749 183.417 C 192.483 180.300,193.027 179.469,193.853 178.667 C 194.725 177.821,196.778 176.792,197.173 177.003 C 197.325 177.085,198.867 177.646,200.600 178.252 " stroke="none" fill="#22303d" fill-rule="evenodd"></path><path id="path1" d="M147.917 84.770 L 147.417 85.013 148.083 84.908 C 148.450 84.850,148.862 84.737,149.000 84.657 C 149.439 84.400,148.470 84.501,147.917 84.770 M152.125 84.622 C 152.515 84.657,153.152 84.657,153.542 84.622 C 153.931 84.587,153.612 84.558,152.833 84.558 C 152.054 84.558,151.735 84.587,152.125 84.622 M156.875 84.788 C 157.219 84.824,157.781 84.824,158.125 84.788 C 158.469 84.752,158.188 84.723,157.500 84.723 C 156.813 84.723,156.531 84.752,156.875 84.788 M160.125 84.951 C 160.331 84.991,160.669 84.991,160.875 84.951 C 161.081 84.911,160.912 84.879,160.500 84.879 C 160.087 84.879,159.919 84.911,160.125 84.951 M165.667 87.583 C 166.165 88.087,166.609 88.500,166.655 88.500 C 166.701 88.500,166.331 88.087,165.833 87.583 C 165.335 87.079,164.891 86.667,164.845 86.667 C 164.799 86.667,165.169 87.079,165.667 87.583 M222.083 92.929 C 202.782 95.530,198.029 120.141,215.167 128.742 C 231.283 136.830,248.536 119.582,240.499 103.417 C 237.104 96.590,229.032 91.992,222.083 92.929 M226.833 99.976 C 236.006 102.697,238.927 113.719,232.255 120.431 C 224.549 128.183,211.333 122.753,211.333 111.833 C 211.333 105.683,215.620 100.766,222.000 99.599 C 222.881 99.438,225.782 99.664,226.833 99.976 M105.264 102.651 C 105.073 102.862,104.999 103.155,105.045 103.526 L 105.113 104.083 105.140 103.513 C 105.155 103.200,105.291 102.806,105.442 102.638 C 105.594 102.470,105.681 102.333,105.635 102.333 C 105.589 102.333,105.422 102.476,105.264 102.651 M256.708 122.615 C 256.869 122.657,257.131 122.657,257.292 122.615 C 257.452 122.573,257.321 122.539,257.000 122.539 C 256.679 122.539,256.548 122.573,256.708 122.615 M196.212 124.667 C 196.212 125.079,196.245 125.248,196.284 125.042 C 196.324 124.835,196.324 124.498,196.284 124.292 C 196.245 124.085,196.212 124.254,196.212 124.667 M129.294 134.785 C 129.501 134.824,129.801 134.823,129.960 134.781 C 130.120 134.739,129.950 134.707,129.583 134.709 C 129.217 134.711,129.086 134.745,129.294 134.785 M184.206 138.231 C 184.045 138.584,184.061 138.619,184.345 138.545 C 184.522 138.499,184.667 138.320,184.667 138.147 C 184.667 137.711,184.422 137.755,184.206 138.231 M182.705 143.000 C 182.705 143.321,182.740 143.452,182.782 143.292 C 182.823 143.131,182.823 142.869,182.782 142.708 C 182.740 142.548,182.705 142.679,182.705 143.000 M154.458 145.287 C 154.756 145.324,155.244 145.324,155.542 145.287 C 155.840 145.250,155.596 145.220,155.000 145.220 C 154.404 145.220,154.160 145.250,154.458 145.287 M150.083 146.000 C 149.873 146.090,149.842 146.143,150.000 146.143 C 150.137 146.143,150.400 146.079,150.583 146.000 C 150.793 145.910,150.824 145.857,150.667 145.857 C 150.529 145.857,150.267 145.921,150.083 146.000 M287.493 148.375 C 288.184 149.111,288.333 149.243,288.333 149.118 C 288.333 149.091,287.977 148.735,287.542 148.326 L 286.750 147.583 287.493 148.375 M182.705 148.667 C 182.705 148.987,182.740 149.119,182.782 148.958 C 182.823 148.798,182.823 148.535,182.782 148.375 C 182.740 148.215,182.705 148.346,182.705 148.667 M160.166 150.125 C 160.384 150.423,160.589 150.667,160.621 150.667 C 160.747 150.667,160.334 150.042,160.061 149.820 C 159.881 149.673,159.921 149.790,160.166 150.125 M259.573 150.542 L 259.083 151.083 259.625 150.594 C 259.923 150.325,260.167 150.081,260.167 150.052 C 260.167 149.923,260.029 150.037,259.573 150.542 M182.879 150.833 C 182.879 151.246,182.911 151.415,182.951 151.208 C 182.991 151.002,182.991 150.665,182.951 150.458 C 182.911 150.252,182.879 150.421,182.879 150.833 M289.945 151.333 C 290.144 151.563,290.339 151.975,290.378 152.250 L 290.450 152.750 290.475 152.237 C 290.493 151.868,290.372 151.612,290.042 151.321 L 289.583 150.917 289.945 151.333 M183.059 153.750 C 183.059 154.575,183.087 154.934,183.122 154.547 C 183.157 154.160,183.157 153.485,183.123 153.047 C 183.088 152.609,183.060 152.925,183.059 153.750 M116.833 158.833 C 116.513 159.009,116.325 159.153,116.417 159.153 C 116.508 159.153,116.846 159.009,117.167 158.833 C 117.487 158.658,117.675 158.514,117.583 158.514 C 117.492 158.514,117.154 158.658,116.833 158.833 M176.583 160.000 C 176.373 160.090,176.342 160.143,176.500 160.143 C 176.637 160.143,176.900 160.079,177.083 160.000 C 177.293 159.910,177.324 159.857,177.167 159.857 C 177.029 159.857,176.767 159.921,176.583 160.000 M166.042 162.282 C 166.202 162.323,166.465 162.323,166.625 162.282 C 166.785 162.240,166.654 162.205,166.333 162.205 C 166.012 162.205,165.881 162.240,166.042 162.282 M185.271 173.375 C 186.010 175.560,184.646 186.610,183.246 189.775 L 182.860 190.647 183.279 190.456 C 183.670 190.278,185.568 187.864,187.109 185.583 C 187.688 184.726,189.598 181.405,190.738 179.271 C 191.993 176.923,194.849 175.056,196.917 175.233 C 200.220 175.516,207.217 178.217,210.708 180.557 C 212.680 181.878,212.711 181.752,210.993 179.410 C 208.923 176.589,208.365 175.884,207.024 174.388 L 205.779 173.000 195.462 173.000 L 185.144 173.000 185.271 173.375 M183.372 175.500 C 183.372 175.821,183.406 175.952,183.448 175.792 C 183.490 175.631,183.490 175.369,183.448 175.208 C 183.406 175.048,183.372 175.179,183.372 175.500 M211.333 182.885 C 211.333 182.914,211.577 183.158,211.875 183.427 L 212.417 183.917 211.927 183.375 C 211.471 182.870,211.333 182.757,211.333 182.885 M185.909 190.375 L 185.250 191.083 185.958 190.425 C 186.617 189.812,186.743 189.667,186.617 189.667 C 186.590 189.667,186.271 189.985,185.909 190.375 M172.542 190.448 C 172.702 190.490,172.965 190.490,173.125 190.448 C 173.285 190.406,173.154 190.372,172.833 190.372 C 172.512 190.372,172.381 190.406,172.542 190.448 M176.958 190.624 C 177.715 190.655,178.952 190.655,179.708 190.624 C 180.465 190.593,179.846 190.568,178.333 190.568 C 176.821 190.568,176.202 190.593,176.958 190.624 M173.458 191.951 C 173.665 191.991,174.002 191.991,174.208 191.951 C 174.415 191.911,174.246 191.879,173.833 191.879 C 173.421 191.879,173.252 191.911,173.458 191.951 M175.542 192.121 C 175.885 192.157,176.448 192.157,176.792 192.121 C 177.135 192.085,176.854 192.056,176.167 192.056 C 175.479 192.056,175.198 192.085,175.542 192.121 M178.958 192.289 C 179.348 192.324,179.985 192.324,180.375 192.289 C 180.765 192.254,180.446 192.225,179.667 192.225 C 178.887 192.225,178.569 192.254,178.958 192.289 M209.560 195.667 C 209.560 196.537,209.588 196.894,209.623 196.458 C 209.657 196.023,209.657 195.310,209.623 194.875 C 209.588 194.440,209.560 194.796,209.560 195.667 M105.032 201.125 C 105.095 202.569,105.231 205.400,105.334 207.417 C 105.495 210.570,105.482 211.515,105.240 214.167 C 104.729 219.787,105.074 223.788,106.382 227.417 L 106.923 228.917 111.147 228.961 L 115.371 229.006 115.250 228.545 C 114.550 225.880,114.235 218.450,114.801 217.943 C 115.806 217.043,116.107 217.946,116.239 222.250 C 116.297 224.171,116.462 226.289,116.628 227.250 L 116.917 228.917 122.282 228.961 L 127.646 229.005 127.580 228.461 C 127.317 226.316,127.350 219.552,127.626 219.000 C 128.250 217.750,129.326 218.369,129.668 220.176 C 129.759 220.654,129.833 222.835,129.833 225.023 L 129.833 229.000 137.500 229.000 L 145.167 229.000 145.165 228.542 C 145.164 228.069,144.658 222.587,144.331 219.502 C 144.022 216.582,144.520 214.500,145.528 214.500 C 146.475 214.500,146.820 216.662,147.610 227.542 L 147.716 229.000 155.037 229.000 L 162.359 229.000 162.255 223.125 C 162.198 219.894,162.080 216.162,161.994 214.833 C 161.585 208.523,161.466 204.858,161.571 201.792 L 161.684 198.500 133.300 198.500 L 104.917 198.500 105.032 201.125 M164.875 207.750 C 164.877 208.117,164.911 208.247,164.951 208.040 C 164.991 207.832,164.990 207.532,164.948 207.373 C 164.906 207.214,164.874 207.383,164.875 207.750 M165.057 212.417 C 165.058 213.150,165.087 213.429,165.122 213.037 C 165.157 212.645,165.157 212.045,165.121 211.704 C 165.085 211.363,165.057 211.683,165.057 212.417 M165.230 215.750 C 165.231 216.850,165.258 217.278,165.290 216.702 C 165.323 216.125,165.323 215.225,165.290 214.702 C 165.257 214.178,165.230 214.650,165.230 215.750 M248.750 214.000 C 249.025 214.070,249.475 214.127,249.750 214.128 C 250.170 214.128,250.144 214.106,249.583 213.990 C 248.739 213.816,248.057 213.824,248.750 214.000 M250.872 214.473 C 250.645 214.617,251.510 216.000,251.826 216.000 C 251.913 216.000,252.011 216.469,252.043 217.042 L 252.102 218.083 252.135 217.038 C 252.167 215.982,251.535 214.523,251.148 214.761 C 251.069 214.810,251.048 214.734,251.103 214.592 C 251.215 214.300,251.175 214.280,250.872 214.473 M165.059 219.417 C 165.059 220.242,165.087 220.600,165.122 220.213 C 165.157 219.827,165.157 219.152,165.123 218.713 C 165.088 218.275,165.060 218.592,165.059 219.417 M251.512 219.929 C 251.397 220.440,251.336 220.891,251.375 220.931 C 251.414 220.970,251.540 220.583,251.655 220.071 C 251.769 219.560,251.831 219.109,251.792 219.069 C 251.752 219.030,251.626 219.417,251.512 219.929 M164.881 221.917 C 164.882 222.375,164.915 222.543,164.953 222.289 C 164.991 222.036,164.990 221.661,164.951 221.456 C 164.911 221.251,164.880 221.458,164.881 221.917 M250.933 222.100 C 250.772 222.611,250.670 223.059,250.707 223.096 C 250.744 223.133,250.906 222.744,251.067 222.233 C 251.228 221.722,251.330 221.274,251.293 221.237 C 251.256 221.201,251.094 221.589,250.933 222.100 M250.188 224.271 C 249.989 224.790,249.854 225.243,249.889 225.278 C 249.923 225.312,250.114 224.915,250.313 224.396 C 250.511 223.877,250.646 223.423,250.611 223.389 C 250.577 223.355,250.386 223.752,250.188 224.271 M164.542 225.083 C 164.544 225.450,164.578 225.580,164.618 225.373 C 164.658 225.166,164.656 224.866,164.615 224.706 C 164.573 224.547,164.540 224.717,164.542 225.083 M226.458 224.787 C 226.756 224.824,227.244 224.824,227.542 224.787 C 227.840 224.750,227.596 224.720,227.000 224.720 C 226.404 224.720,226.160 224.750,226.458 224.787 M225.429 225.095 C 225.285 225.239,225.167 225.439,225.167 225.540 C 225.167 225.640,225.186 225.691,225.210 225.653 C 225.234 225.615,225.396 225.415,225.569 225.208 C 225.928 224.782,225.825 224.699,225.429 225.095 M229.333 225.167 C 229.563 225.240,229.938 225.299,230.167 225.297 C 230.541 225.294,230.532 225.281,230.083 225.167 C 229.378 224.987,228.773 224.987,229.333 225.167 M249.191 226.743 C 248.903 227.430,248.668 228.088,248.670 228.205 C 248.671 228.321,248.933 227.785,249.251 227.012 C 249.569 226.240,249.804 225.582,249.773 225.550 C 249.741 225.519,249.480 226.056,249.191 226.743 M233.083 225.843 C 233.928 226.018,234.610 226.010,233.917 225.833 C 233.642 225.763,233.192 225.706,232.917 225.706 C 232.496 225.705,232.523 225.727,233.083 225.843 M164.379 226.500 C 164.379 226.912,164.411 227.081,164.451 226.875 C 164.491 226.669,164.491 226.331,164.451 226.125 C 164.411 225.919,164.379 226.088,164.379 226.500 M236.417 226.500 C 237.122 226.679,237.727 226.679,237.167 226.500 C 236.938 226.427,236.563 226.368,236.333 226.370 C 235.959 226.372,235.968 226.386,236.417 226.500 M226.500 226.907 C 226.500 227.060,227.477 227.500,227.783 227.486 C 227.983 227.476,227.940 227.428,227.657 227.342 C 227.422 227.271,227.066 227.125,226.865 227.017 C 226.664 226.910,226.500 226.860,226.500 226.907 M239.583 227.167 C 240.288 227.346,240.894 227.346,240.333 227.167 C 240.104 227.093,239.729 227.035,239.500 227.036 C 239.126 227.039,239.134 227.052,239.583 227.167 M164.193 228.375 L 164.167 229.000 199.694 229.000 C 219.235 229.000,235.183 228.960,235.134 228.912 C 235.086 228.864,219.141 228.827,199.701 228.831 L 164.355 228.838 164.287 228.294 C 164.221 227.756,164.220 227.756,164.193 228.375 M230.375 228.115 C 230.535 228.157,230.798 228.157,230.958 228.115 C 231.119 228.073,230.987 228.039,230.667 228.039 C 230.346 228.039,230.215 228.073,230.375 228.115 M244.917 228.500 C 245.100 228.579,245.362 228.643,245.500 228.643 C 245.658 228.643,245.627 228.590,245.417 228.500 C 245.233 228.421,244.971 228.357,244.833 228.357 C 244.676 228.357,244.707 228.410,244.917 228.500 M248.519 228.804 C 248.501 229.172,248.454 229.186,247.542 229.103 L 246.583 229.015 247.476 229.190 C 248.447 229.380,248.754 229.255,248.618 228.726 C 248.555 228.479,248.535 228.494,248.519 228.804 " stroke="none" fill="#a245c8" fill-rule="evenodd"></path><path id="path2" d="M223.513 62.181 C 221.760 62.525,219.124 63.680,217.244 64.928 L 216.294 65.559 216.769 65.904 C 220.352 68.512,225.307 74.878,224.516 75.855 C 224.030 76.455,223.544 76.096,222.079 74.054 C 218.707 69.356,214.593 65.275,213.690 65.734 C 213.448 65.857,212.817 66.083,212.289 66.235 C 210.920 66.628,207.012 68.303,204.945 69.382 L 203.186 70.301 204.302 70.942 C 205.982 71.908,208.583 74.606,210.584 77.458 C 211.500 78.764,212.573 80.293,212.967 80.856 C 213.949 82.259,213.944 83.220,212.953 83.302 C 212.064 83.375,210.723 81.981,208.602 78.777 C 205.184 73.611,201.843 70.356,200.641 71.017 C 196.631 73.223,193.729 75.299,190.706 78.123 L 188.996 79.721 191.131 81.902 C 192.306 83.102,194.275 85.275,195.508 86.732 C 196.741 88.188,198.482 90.246,199.376 91.305 C 201.217 93.485,201.833 94.565,201.833 95.610 C 201.833 97.087,200.639 96.756,199.033 94.833 C 198.535 94.237,197.365 92.850,196.432 91.750 C 192.937 87.628,189.324 83.003,187.969 80.917 C 187.552 80.275,186.949 79.452,186.629 79.088 L 186.047 78.427 185.648 78.868 C 185.429 79.111,184.322 79.805,183.188 80.410 C 180.399 81.899,177.876 83.645,176.304 85.175 L 175.000 86.445 175.000 87.360 C 175.000 88.128,175.069 88.340,175.429 88.678 C 175.665 88.900,176.118 89.577,176.437 90.183 C 176.756 90.790,177.583 91.990,178.276 92.851 C 178.969 93.712,181.116 96.592,183.048 99.250 C 184.980 101.908,187.576 105.396,188.817 107.000 C 195.852 116.093,198.042 119.522,199.356 123.500 C 199.644 124.371,199.971 125.271,200.083 125.500 C 200.915 127.201,200.472 127.175,198.676 125.417 C 196.956 123.734,197.021 123.754,197.192 124.958 C 197.611 127.914,194.015 132.535,190.212 133.927 C 189.775 134.088,189.004 134.533,188.500 134.917 C 187.996 135.302,187.255 135.822,186.854 136.074 L 186.124 136.531 186.205 137.641 C 186.335 139.415,188.234 143.279,191.751 148.922 C 192.549 150.202,193.340 151.520,193.508 151.850 C 194.391 153.577,197.196 153.426,202.417 151.371 C 207.689 149.295,211.116 148.527,212.681 149.072 C 213.086 149.213,213.662 149.330,213.962 149.331 C 215.312 149.337,218.350 151.239,221.826 154.255 C 223.238 155.480,225.504 156.499,227.935 157.004 L 228.898 157.204 230.350 156.492 C 231.560 155.899,231.865 155.667,232.184 155.098 C 232.395 154.723,233.517 152.992,234.678 151.250 C 235.840 149.508,237.824 146.321,239.087 144.167 C 242.143 138.958,244.068 136.071,246.423 133.167 C 248.791 130.245,249.481 129.354,250.230 128.250 C 250.665 127.608,251.293 126.708,251.625 126.250 C 253.766 123.295,254.319 122.354,254.432 121.471 C 254.549 120.555,254.921 119.738,256.852 116.161 L 257.979 114.072 257.645 112.081 C 257.462 110.986,257.010 108.926,256.641 107.503 C 256.273 106.081,255.708 103.848,255.386 102.541 C 254.829 100.281,254.733 100.052,253.397 97.809 C 251.308 94.304,250.985 93.879,245.997 88.083 C 244.390 86.216,241.986 83.157,237.312 77.032 C 236.704 76.235,235.435 74.271,234.493 72.667 C 231.620 67.776,229.666 65.387,226.776 63.231 C 225.043 61.939,224.931 61.903,223.513 62.181 M227.610 93.347 C 244.835 97.080,247.917 120.803,232.199 128.671 C 217.040 136.258,200.306 121.806,205.680 105.768 C 208.080 98.603,213.925 94.028,222.083 92.929 C 223.084 92.794,226.115 93.024,227.610 93.347 M222.000 99.599 C 211.498 101.520,207.646 113.777,215.317 120.865 C 223.884 128.782,237.689 121.125,235.677 109.571 C 234.603 103.403,227.904 98.519,222.000 99.599 M184.938 144.708 C 184.949 147.390,185.025 150.366,185.106 151.322 C 185.512 156.106,184.539 158.892,181.971 160.298 C 179.479 161.661,172.374 163.505,168.587 163.771 C 167.024 163.881,166.736 164.023,167.623 164.245 C 167.876 164.309,169.208 164.823,170.583 165.389 L 173.083 166.417 187.610 166.462 L 202.136 166.507 202.051 165.875 C 201.749 163.620,208.567 153.946,212.242 151.415 C 213.327 150.667,213.177 150.116,212.020 150.599 C 211.708 150.729,210.530 151.064,209.402 151.343 C 207.108 151.911,206.278 152.180,202.333 153.634 C 196.078 155.939,193.669 155.474,190.938 151.434 C 188.490 147.814,185.956 143.087,185.321 140.958 C 185.137 140.340,184.970 139.833,184.951 139.833 C 184.932 139.833,184.926 142.027,184.938 144.708 M153.800 148.342 C 153.644 148.433,151.506 149.172,149.050 149.984 C 146.593 150.797,143.721 151.818,142.667 152.253 C 138.938 153.794,133.385 155.738,131.333 156.221 C 128.509 156.886,127.345 157.156,126.500 157.342 C 125.391 157.587,120.141 159.512,118.752 160.184 C 118.204 160.449,117.621 160.667,117.457 160.667 C 117.129 160.667,116.860 161.222,116.799 162.023 C 116.720 163.059,115.756 163.838,112.569 165.441 C 110.336 166.564,109.579 167.026,109.397 167.375 L 109.158 167.833 140.037 167.828 C 159.644 167.825,170.818 167.765,170.645 167.665 C 170.496 167.578,169.784 167.270,169.062 166.982 C 167.437 166.332,166.700 165.831,165.103 164.292 C 164.414 163.627,163.659 162.907,163.425 162.691 C 163.191 162.475,163.000 162.117,163.000 161.896 C 163.000 161.441,162.167 158.744,161.576 157.283 C 161.360 156.751,161.222 156.216,161.269 156.095 C 161.631 155.150,158.316 149.433,157.114 148.928 C 155.818 148.384,154.214 148.101,153.800 148.342 " stroke="none" fill="#fbde0f" fill-rule="evenodd"></path><path id="path3" d="M148.583 84.752 C 148.217 84.868,147.129 85.171,146.167 85.427 C 144.298 85.924,141.388 87.001,139.750 87.801 C 139.200 88.069,138.225 88.532,137.583 88.830 C 136.942 89.127,135.892 89.617,135.250 89.919 C 133.965 90.523,132.389 91.231,132.000 91.379 C 131.862 91.431,141.446 91.480,153.297 91.487 L 174.843 91.500 175.825 93.042 C 177.158 95.133,177.969 96.276,178.687 97.077 C 179.020 97.447,179.527 98.219,179.815 98.792 C 180.103 99.365,180.376 99.833,180.421 99.833 C 180.654 99.833,179.332 97.601,178.488 96.569 C 177.957 95.919,177.073 94.681,176.523 93.819 C 175.974 92.956,175.223 91.875,174.855 91.417 C 174.487 90.958,174.049 90.409,173.881 90.195 L 173.576 89.807 172.580 90.142 C 169.391 91.214,169.285 91.178,166.048 87.905 C 164.637 86.478,163.355 85.287,163.200 85.257 C 162.282 85.083,158.149 84.811,154.250 84.667 C 149.134 84.479,149.466 84.474,148.583 84.752 M110.833 98.917 C 110.604 99.048,110.492 99.155,110.583 99.155 C 110.675 99.155,110.938 99.048,111.167 98.917 C 111.396 98.786,111.508 98.678,111.417 98.678 C 111.325 98.678,111.063 98.786,110.833 98.917 M105.059 105.417 C 105.059 106.242,105.087 106.600,105.122 106.213 C 105.157 105.827,105.157 105.152,105.123 104.713 C 105.088 104.275,105.060 104.592,105.059 105.417 M105.712 117.833 C 105.712 118.246,105.745 118.415,105.784 118.208 C 105.824 118.002,105.824 117.665,105.784 117.458 C 105.745 117.252,105.712 117.421,105.712 117.833 M120.109 122.205 C 120.003 122.272,136.934 122.328,157.734 122.331 C 184.603 122.334,195.614 122.387,195.768 122.515 C 195.894 122.620,196.010 123.162,196.043 123.806 L 196.101 124.917 196.134 123.817 C 196.160 122.938,196.106 122.663,195.863 122.443 C 195.539 122.151,120.568 121.915,120.109 122.205 M106.169 122.458 C 106.171 122.662,106.211 122.688,106.302 122.546 C 106.395 122.399,107.306 122.327,109.507 122.292 L 112.583 122.242 109.375 122.204 C 106.415 122.170,106.167 122.189,106.169 122.458 M255.917 122.899 C 255.417 123.117,254.155 124.937,252.899 127.250 C 252.033 128.844,250.923 130.708,248.263 135.037 C 246.895 137.262,244.434 141.434,242.795 144.308 C 241.156 147.181,239.421 150.143,238.941 150.891 C 238.460 151.638,238.009 152.344,237.940 152.458 C 237.839 152.625,241.632 152.665,256.698 152.657 L 275.583 152.646 276.874 150.698 C 280.098 145.833,281.533 141.679,280.292 140.810 C 279.994 140.602,279.232 139.999,278.600 139.470 C 276.182 137.451,271.035 134.309,268.973 133.594 L 268.362 133.382 268.108 133.983 C 267.968 134.313,267.503 135.408,267.074 136.417 C 264.744 141.904,260.218 150.219,259.136 151.003 C 256.206 153.126,257.361 149.196,262.192 140.610 C 262.545 139.983,262.833 139.444,262.833 139.412 C 262.833 139.235,265.689 134.365,266.508 133.145 C 267.341 131.904,268.333 130.163,268.333 129.940 C 268.333 129.901,268.153 129.824,267.932 129.769 C 267.711 129.713,266.718 128.973,265.724 128.124 C 260.633 123.774,257.604 122.160,255.917 122.899 M107.359 125.683 C 107.052 125.962,106.833 126.221,106.870 126.259 C 106.908 126.297,107.193 126.067,107.502 125.748 C 108.194 125.034,108.113 124.998,107.359 125.683 M196.095 125.762 C 196.034 126.006,196.016 126.238,196.055 126.277 C 196.094 126.317,196.177 126.149,196.238 125.905 C 196.299 125.661,196.317 125.429,196.278 125.389 C 196.239 125.350,196.157 125.518,196.095 125.762 M109.083 126.667 C 108.808 126.849,108.658 126.997,108.750 126.995 C 108.917 126.993,109.823 126.343,109.667 126.338 C 109.621 126.337,109.358 126.485,109.083 126.667 M187.866 133.681 C 187.481 133.964,187.167 134.231,187.167 134.275 C 187.167 134.318,187.504 134.112,187.917 133.815 C 188.591 133.331,188.768 133.167,188.616 133.167 C 188.588 133.167,188.251 133.398,187.866 133.681 M130.333 136.531 C 129.921 136.907,129.733 137.135,129.917 137.038 C 130.230 136.872,131.314 135.825,131.156 135.840 C 131.116 135.844,130.746 136.155,130.333 136.531 M184.732 136.071 C 184.681 136.202,184.668 136.483,184.702 136.696 C 184.748 136.981,184.787 136.918,184.849 136.458 C 184.936 135.811,184.890 135.659,184.732 136.071 M109.167 137.268 C 109.167 137.331,110.468 140.148,111.025 141.292 C 111.809 142.900,111.699 142.869,113.317 141.938 C 115.585 140.633,120.472 138.241,122.208 137.587 C 122.644 137.422,123.000 137.279,123.000 137.269 C 123.000 137.259,119.888 137.250,116.083 137.250 C 112.279 137.250,109.167 137.258,109.167 137.268 M129.017 137.453 C 128.870 137.565,128.656 137.658,128.540 137.661 C 128.425 137.664,127.166 138.232,125.744 138.922 C 124.322 139.613,122.541 140.429,121.787 140.735 C 120.604 141.217,118.319 142.191,117.250 142.669 C 116.218 143.131,114.712 143.702,113.167 144.217 C 112.204 144.537,111.060 144.955,110.624 145.144 L 109.832 145.489 110.151 146.203 C 110.326 146.595,110.672 147.929,110.920 149.167 C 112.007 154.606,113.551 158.182,115.075 158.795 L 116.043 159.184 118.396 158.164 C 119.691 157.604,121.087 157.009,121.500 156.842 C 121.912 156.675,122.625 156.386,123.083 156.199 C 123.542 156.012,124.329 155.706,124.833 155.520 C 125.337 155.334,126.237 155.000,126.833 154.778 C 127.429 154.556,128.292 154.243,128.750 154.081 C 130.382 153.507,133.095 152.472,133.796 152.155 C 134.188 151.978,134.580 151.833,134.666 151.833 C 134.817 151.833,136.415 151.183,139.583 149.833 C 141.266 149.116,143.702 148.150,144.833 147.750 C 145.495 147.517,146.422 147.206,149.360 146.234 C 151.480 145.533,158.904 144.678,159.310 145.089 C 159.469 145.249,158.572 145.932,157.208 146.691 C 155.767 147.493,155.736 147.589,156.875 147.739 C 159.567 148.092,163.167 153.500,163.167 157.190 C 163.167 157.641,163.287 158.290,163.433 158.630 C 163.580 158.971,163.862 159.806,164.061 160.486 C 164.563 162.206,165.320 162.452,168.500 161.927 C 170.428 161.610,174.422 160.652,177.250 159.829 C 177.892 159.642,179.092 159.312,179.917 159.096 C 182.353 158.457,183.132 156.835,182.939 152.800 C 182.483 143.254,182.587 141.382,183.694 139.208 C 184.080 138.452,184.456 137.833,184.531 137.833 C 184.606 137.833,184.667 137.721,184.667 137.584 C 184.667 137.246,129.459 137.116,129.017 137.453 M282.020 144.595 C 281.652 146.783,280.357 149.932,278.993 151.952 L 278.511 152.667 284.422 152.667 L 290.333 152.667 290.333 152.255 C 290.333 151.313,285.712 146.191,282.478 143.547 C 282.265 143.373,282.200 143.521,282.020 144.595 M212.833 153.083 C 212.428 153.496,212.135 153.833,212.181 153.833 C 212.226 153.833,212.595 153.496,213.000 153.083 C 213.405 152.671,213.699 152.333,213.653 152.333 C 213.607 152.333,213.238 152.671,212.833 153.083 M234.158 157.292 L 233.583 157.917 234.208 157.342 C 234.552 157.026,234.833 156.745,234.833 156.717 C 234.833 156.590,234.692 156.710,234.158 157.292 M195.712 177.444 C 193.907 178.323,193.206 179.181,190.834 183.417 C 186.152 191.779,184.819 192.599,176.615 192.163 C 171.944 191.915,169.997 192.156,167.283 193.319 C 166.146 193.807,165.007 195.790,165.003 197.292 L 165.000 198.333 187.394 198.333 L 209.788 198.333 209.625 197.458 C 209.213 195.248,209.930 190.987,211.062 188.917 C 211.636 187.868,212.085 186.334,212.264 184.813 L 212.370 183.910 211.616 183.215 C 210.843 182.502,208.782 181.429,206.417 180.509 C 205.683 180.223,204.933 179.918,204.750 179.830 C 204.321 179.624,201.576 178.638,199.333 177.884 C 198.371 177.561,197.512 177.230,197.425 177.148 C 197.164 176.904,196.633 176.996,195.712 177.444 M104.050 181.667 C 104.050 182.171,104.081 182.377,104.119 182.125 C 104.158 181.873,104.158 181.460,104.119 181.208 C 104.081 180.956,104.050 181.162,104.050 181.667 M103.875 185.083 C 103.877 185.450,103.911 185.580,103.951 185.373 C 103.991 185.166,103.990 184.866,103.948 184.706 C 103.906 184.547,103.874 184.717,103.875 185.083 M103.872 187.667 C 103.872 187.987,103.906 188.119,103.948 187.958 C 103.990 187.798,103.990 187.535,103.948 187.375 C 103.906 187.215,103.872 187.346,103.872 187.667 M164.903 204.167 C 164.903 205.862,164.927 206.556,164.958 205.708 C 164.988 204.860,164.988 203.473,164.958 202.625 C 164.927 201.777,164.903 202.471,164.903 204.167 M206.250 213.667 L 165.250 213.750 165.205 216.972 C 165.180 218.744,165.090 220.844,165.004 221.638 C 164.492 226.422,164.288 228.677,164.361 228.750 C 164.408 228.796,180.151 228.815,199.348 228.792 C 233.638 228.751,234.218 228.745,232.417 228.449 C 227.916 227.710,225.947 227.014,225.402 225.969 C 224.692 224.606,226.051 224.376,230.157 225.164 C 231.583 225.438,233.575 225.816,234.583 226.004 C 238.316 226.700,243.336 227.857,245.083 228.424 C 247.088 229.075,248.635 229.334,248.552 229.006 C 248.468 228.676,248.798 227.656,249.658 225.593 C 251.331 221.576,252.596 216.000,251.834 216.000 C 251.512 216.000,250.641 214.619,250.872 214.473 C 250.988 214.399,251.023 214.337,250.949 214.336 C 250.515 214.328,248.352 213.936,247.847 213.775 C 247.402 213.632,236.837 213.604,206.250 213.667 " stroke="none" fill="#e78be7" fill-rule="evenodd"></path><path id="path4" d="M128.833 92.672 C 125.806 93.879,124.601 94.375,123.750 94.762 C 122.152 95.488,121.389 95.729,117.693 96.677 C 112.639 97.973,109.576 99.360,106.750 101.632 C 105.126 102.937,105.178 102.805,105.154 105.714 C 105.135 108.062,105.263 108.981,105.927 111.297 L 106.179 112.177 107.131 111.449 C 108.189 110.641,110.182 109.448,111.132 109.055 C 111.472 108.914,112.125 108.627,112.583 108.418 C 113.042 108.208,113.942 107.835,114.583 107.590 C 115.225 107.344,116.139 106.987,116.614 106.795 C 117.620 106.391,118.333 106.639,118.333 107.395 C 118.333 107.981,117.882 108.281,115.897 109.016 C 110.612 110.974,105.357 113.912,105.643 114.750 C 105.674 114.842,105.726 115.817,105.759 116.917 C 105.792 118.017,105.909 119.648,106.019 120.542 L 106.221 122.167 109.402 122.204 L 112.583 122.242 109.438 122.292 L 106.293 122.341 106.402 122.879 C 106.463 123.175,106.591 123.979,106.687 124.667 C 106.783 125.354,106.888 125.942,106.918 125.974 C 106.949 126.005,107.562 125.555,108.279 124.974 C 108.997 124.392,109.763 123.816,109.981 123.693 C 111.135 123.043,111.482 122.850,111.769 122.701 C 112.578 122.279,114.140 121.677,116.369 120.927 C 117.076 120.689,118.214 120.271,118.897 119.997 C 121.863 118.809,123.296 120.192,120.833 121.866 C 120.441 122.133,122.592 122.150,157.958 122.158 C 178.606 122.163,195.500 122.126,195.500 122.076 C 195.500 122.027,195.269 121.670,194.988 121.285 C 194.706 120.899,193.758 119.496,192.882 118.167 C 192.006 116.837,189.891 113.875,188.181 111.583 C 184.827 107.086,184.938 107.241,183.576 105.199 C 182.657 103.822,180.387 99.931,179.667 98.500 C 179.460 98.087,179.019 97.447,178.687 97.077 C 177.968 96.275,177.156 95.131,175.825 93.042 L 174.843 91.500 153.297 91.504 L 131.750 91.508 128.833 92.672 M120.125 122.312 C 120.010 122.346,119.690 122.477,119.414 122.604 C 119.138 122.731,117.646 123.247,116.100 123.752 C 111.766 125.167,107.622 127.338,106.985 128.528 C 106.857 128.768,106.876 129.088,107.059 129.720 C 107.197 130.195,107.484 131.296,107.696 132.166 C 107.909 133.037,108.349 134.537,108.673 135.500 L 109.262 137.250 116.089 137.250 L 122.917 137.250 125.000 136.235 C 127.631 134.952,128.750 134.605,129.933 134.703 C 131.663 134.846,131.659 135.965,129.924 137.023 C 129.429 137.325,130.063 137.332,157.042 137.333 L 184.667 137.333 184.667 136.744 C 184.667 135.937,185.060 135.404,186.010 134.927 C 186.766 134.548,187.383 134.113,189.449 132.506 C 189.925 132.136,190.435 131.833,190.583 131.833 C 191.267 131.833,193.919 129.284,195.417 127.186 L 196.083 126.252 196.037 124.512 C 196.012 123.556,195.909 122.675,195.809 122.554 C 195.640 122.350,120.802 122.111,120.125 122.312 M214.333 151.955 C 212.935 152.865,209.639 156.711,206.511 161.083 C 205.658 162.275,204.729 163.543,204.445 163.902 C 203.886 164.609,203.848 165.006,204.192 166.583 C 204.568 168.308,205.197 169.209,208.560 172.833 C 211.827 176.354,213.850 179.641,214.199 181.994 L 214.374 183.167 249.978 183.166 L 285.583 183.166 286.740 181.125 C 289.091 176.977,289.526 176.294,291.354 173.883 C 295.307 168.667,296.989 165.270,297.584 161.302 C 297.761 160.123,296.100 157.787,293.548 155.626 C 291.455 153.854,291.390 153.829,291.164 154.706 C 290.180 158.532,286.293 165.667,285.193 165.667 C 284.143 165.667,284.281 164.638,285.616 162.520 C 286.229 161.547,287.186 159.848,287.741 158.746 C 288.703 156.835,288.926 156.326,289.893 153.833 L 290.313 152.750 284.451 152.706 L 278.588 152.662 278.297 153.039 C 278.137 153.247,277.499 154.273,276.878 155.319 C 275.471 157.692,274.643 158.303,273.920 157.504 C 273.409 156.939,273.854 155.352,275.080 153.375 L 275.519 152.667 256.634 152.675 L 237.750 152.684 236.750 154.124 C 235.196 156.363,234.311 157.345,231.909 159.501 C 229.059 162.058,229.076 162.061,230.167 159.270 C 230.995 157.150,231.004 157.220,229.971 157.781 C 227.674 159.030,223.299 157.774,219.250 154.703 C 218.425 154.078,217.188 153.138,216.501 152.616 C 215.158 151.596,214.973 151.539,214.333 151.955 M108.588 169.086 C 107.867 170.604,107.556 171.378,106.410 174.500 C 105.922 175.829,105.324 177.442,105.081 178.083 C 104.838 178.725,104.537 179.588,104.413 180.000 C 104.104 181.025,103.842 186.357,103.995 188.500 C 104.145 190.604,104.825 197.597,104.931 198.125 L 105.006 198.500 133.337 198.500 C 148.918 198.500,161.669 198.481,161.673 198.458 C 161.984 196.283,163.354 190.746,163.656 190.444 C 163.831 190.269,164.258 191.565,164.499 193.000 C 164.776 194.653,164.799 194.671,165.345 193.673 C 166.804 191.005,169.404 190.265,176.692 190.444 L 181.134 190.553 181.570 189.693 C 182.315 188.223,182.908 183.790,183.333 176.517 L 183.512 173.451 183.055 172.792 C 181.831 171.027,180.794 170.533,175.417 169.156 C 174.042 168.804,172.474 168.362,171.932 168.174 C 170.954 167.836,170.751 167.833,140.065 167.833 L 109.182 167.833 108.588 169.086 M165.000 203.724 C 165.000 206.688,165.049 210.138,165.109 211.390 L 165.218 213.667 206.234 213.647 C 228.793 213.637,247.100 213.596,246.917 213.558 C 245.693 213.300,242.467 212.495,239.917 211.811 C 237.108 211.057,229.857 209.256,226.667 208.520 C 225.887 208.341,224.537 208.029,223.667 207.827 C 217.717 206.451,213.462 204.880,210.333 202.905 C 209.646 202.470,208.727 201.894,208.292 201.624 C 207.078 200.870,207.240 200.789,209.692 200.924 L 211.885 201.046 211.217 200.442 C 210.850 200.111,210.370 199.500,210.150 199.086 L 209.751 198.333 187.375 198.333 L 165.000 198.333 165.000 203.724 " stroke="none" fill="#fbfbfb" fill-rule="evenodd"></path></g></svg>